<svg width="149" height="75" viewBox="0 0 149 75" fill="none" xmlns="http://www.w3.org/2000/svg">
<path d="M20.85 74.84V67.72C16.85 67.4 13.57 66.5467 11.01 65.16C8.50333 63.7733 6.53 62.1467 5.09 60.28C3.70333 58.36 2.69 56.4933 2.05 54.68C1.46333 52.8667 1.09 51.3733 0.93 50.2C0.823334 48.9733 0.77 48.36 0.77 48.36H11.25C11.25 48.36 11.3033 48.84 11.41 49.8C11.57 50.7067 11.9433 51.8 12.53 53.08C13.1167 54.3067 14.05 55.48 15.33 56.6C16.6633 57.72 18.5033 58.4933 20.85 58.92V40.92L20.37 40.76C17.33 40.12 14.4233 39.2133 11.65 38.04C8.93 36.8133 6.71667 35.1067 5.01 32.92C3.30333 30.7333 2.45 27.8267 2.45 24.2C2.45 20.84 3.27667 17.9333 4.93 15.48C6.63667 13.0267 8.87667 11.1067 11.65 9.72C14.4233 8.28 17.49 7.4 20.85 7.08V0.119998H27.17V7.24C30.6367 7.61333 33.49 8.46667 35.73 9.8C37.97 11.08 39.73 12.5733 41.01 14.28C42.29 15.9333 43.2233 17.56 43.81 19.16C44.45 20.7067 44.85 22.0133 45.01 23.08C45.17 24.1467 45.25 24.68 45.25 24.68H34.93C34.93 24.68 34.85 24.3333 34.69 23.64C34.5833 22.8933 34.29 22.0133 33.81 21C33.33 19.9867 32.5567 19 31.49 18.04C30.4233 17.08 28.9833 16.36 27.17 15.88V32.76L28.05 33C30.0233 33.4267 32.05 33.9867 34.13 34.68C36.21 35.32 38.13 36.2533 39.89 37.48C41.7033 38.7067 43.17 40.3333 44.29 42.36C45.41 44.3333 45.97 46.84 45.97 49.88C45.97 53.1333 45.17 56.04 43.57 58.6C42.0233 61.1067 39.8367 63.16 37.01 64.76C34.1833 66.36 30.9033 67.3467 27.17 67.72V74.84H20.85ZM12.61 23.88C12.61 25.8 13.2767 27.3467 14.61 28.52C15.9433 29.64 18.0233 30.5733 20.85 31.32V15.56C18.29 15.9867 16.2633 16.9733 14.77 18.52C13.33 20.0133 12.61 21.8 12.61 23.88ZM35.73 50.04C35.73 47.8533 34.9833 46.2 33.49 45.08C31.9967 43.9067 29.89 42.9733 27.17 42.28V58.92C29.6767 58.44 31.73 57.4267 33.33 55.88C34.93 54.28 35.73 52.3333 35.73 50.04ZM62.79 67C63.0033 62.04 63.6433 57.3467 64.71 52.92C65.83 48.4933 67.19 44.4133 68.79 40.68C70.4433 36.8933 72.1767 33.48 73.99 30.44C75.8033 27.4 77.51 24.7867 79.11 22.6C80.7633 20.36 82.15 18.6 83.27 17.32H53.11V7.8H95.35V15.64C95.35 15.64 94.8433 16.2 93.83 17.32C92.87 18.3867 91.59 19.9867 89.99 22.12C88.4433 24.2 86.7633 26.76 84.95 29.8C83.1367 32.7867 81.4033 36.2 79.75 40.04C78.15 43.8267 76.7633 47.9867 75.59 52.52C74.47 57.0533 73.83 61.88 73.67 67H62.79ZM125.144 7C129.144 7 132.61 7.74666 135.544 9.24C138.53 10.68 140.984 12.6533 142.904 15.16C144.824 17.6667 146.237 20.5467 147.144 23.8C148.104 27.0533 148.584 30.4667 148.584 34.04C148.584 37.08 148.21 40.2 147.464 43.4C146.77 46.5467 145.65 49.5867 144.104 52.52C142.61 55.4 140.637 58.0133 138.184 60.36C135.73 62.6533 132.797 64.4667 129.384 65.8C125.97 67.1333 122.024 67.8 117.544 67.8C115.144 67.8 113.037 67.64 111.224 67.32C109.464 67 108.584 66.84 108.584 66.84V57.08C108.584 57.08 109.037 57.16 109.944 57.32C110.904 57.48 112.05 57.64 113.384 57.8C114.77 57.96 116.157 58.04 117.544 58.04C120.957 58.04 123.89 57.48 126.344 56.36C128.797 55.24 130.797 53.7733 132.344 51.96C133.89 50.0933 135.064 48.0933 135.864 45.96C136.717 43.8267 137.197 41.7733 137.304 39.8C136.824 40.6 136.024 41.56 134.904 42.68C133.837 43.8 132.317 44.7867 130.344 45.64C128.424 46.4933 125.97 46.92 122.984 46.92C118.664 46.92 115.064 45.9867 112.184 44.12C109.304 42.2533 107.144 39.8533 105.704 36.92C104.264 33.9333 103.544 30.8133 103.544 27.56C103.544 25 103.997 22.52 104.904 20.12C105.81 17.6667 107.144 15.4533 108.904 13.48C110.717 11.5067 112.957 9.93333 115.624 8.76C118.344 7.58666 121.517 7 125.144 7ZM125.144 16.04C122.104 16.04 119.49 17.0533 117.304 19.08C115.17 21.0533 114.104 23.7733 114.104 27.24C114.104 30.7067 115.17 33.4533 117.304 35.48C119.49 37.4533 122.104 38.44 125.144 38.44C128.184 38.44 130.797 37.4533 132.984 35.48C135.17 33.4533 136.264 30.7067 136.264 27.24C136.264 23.7733 135.17 21.0533 132.984 19.08C130.797 17.0533 128.184 16.04 125.144 16.04Z" fill="#262626"/>
</svg>
