<svg width="102" height="75" viewBox="0 0 102 75" fill="none" xmlns="http://www.w3.org/2000/svg">
<path d="M20.35 74.84V67.72C16.35 67.4 13.07 66.5467 10.51 65.16C8.00333 63.7733 6.03 62.1467 4.59 60.28C3.20333 58.36 2.19 56.4933 1.55 54.68C0.963334 52.8667 0.59 51.3733 0.43 50.2C0.323334 48.9733 0.27 48.36 0.27 48.36H10.75C10.75 48.36 10.8033 48.84 10.91 49.8C11.07 50.7067 11.4433 51.8 12.03 53.08C12.6167 54.3067 13.55 55.48 14.83 56.6C16.1633 57.72 18.0033 58.4933 20.35 58.92V40.92L19.87 40.76C16.83 40.12 13.9233 39.2133 11.15 38.04C8.43 36.8133 6.21667 35.1067 4.51 32.92C2.80333 30.7333 1.95 27.8267 1.95 24.2C1.95 20.84 2.77667 17.9333 4.43 15.48C6.13667 13.0267 8.37667 11.1067 11.15 9.72C13.9233 8.28 16.99 7.4 20.35 7.08V0.119998H26.67V7.24C30.1367 7.61333 32.99 8.46667 35.23 9.8C37.47 11.08 39.23 12.5733 40.51 14.28C41.79 15.9333 42.7233 17.56 43.31 19.16C43.95 20.7067 44.35 22.0133 44.51 23.08C44.67 24.1467 44.75 24.68 44.75 24.68H34.43C34.43 24.68 34.35 24.3333 34.19 23.64C34.0833 22.8933 33.79 22.0133 33.31 21C32.83 19.9867 32.0567 19 30.99 18.04C29.9233 17.08 28.4833 16.36 26.67 15.88V32.76L27.55 33C29.5233 33.4267 31.55 33.9867 33.63 34.68C35.71 35.32 37.63 36.2533 39.39 37.48C41.2033 38.7067 42.67 40.3333 43.79 42.36C44.91 44.3333 45.47 46.84 45.47 49.88C45.47 53.1333 44.67 56.04 43.07 58.6C41.5233 61.1067 39.3367 63.16 36.51 64.76C33.6833 66.36 30.4033 67.3467 26.67 67.72V74.84H20.35ZM12.11 23.88C12.11 25.8 12.7767 27.3467 14.11 28.52C15.4433 29.64 17.5233 30.5733 20.35 31.32V15.56C17.79 15.9867 15.7633 16.9733 14.27 18.52C12.83 20.0133 12.11 21.8 12.11 23.88ZM35.23 50.04C35.23 47.8533 34.4833 46.2 32.99 45.08C31.4967 43.9067 29.39 42.9733 26.67 42.28V58.92C29.1767 58.44 31.23 57.4267 32.83 55.88C34.43 54.28 35.23 52.3333 35.23 50.04ZM77.3206 67.72C73.4806 67.72 70.0406 66.92 67.0006 65.32C64.014 63.72 61.5073 61.5333 59.4806 58.76C57.454 55.9333 55.9073 52.7067 54.8406 49.08C53.774 45.4 53.2406 41.48 53.2406 37.32C53.2406 33.2133 53.774 29.32 54.8406 25.64C55.9073 21.96 57.454 18.7333 59.4806 15.96C61.5073 13.1333 64.014 10.92 67.0006 9.32C70.0406 7.72 73.4806 6.92 77.3206 6.92C81.1606 6.92 84.574 7.72 87.5606 9.32C90.6006 10.92 93.134 13.1333 95.1606 15.96C97.1873 18.7333 98.734 21.96 99.8006 25.64C100.867 29.32 101.401 33.2133 101.401 37.32C101.401 41.48 100.867 45.4 99.8006 49.08C98.734 52.7067 97.1873 55.9333 95.1606 58.76C93.134 61.5333 90.6006 63.72 87.5606 65.32C84.574 66.92 81.1606 67.72 77.3206 67.72ZM77.3206 58.04C81.054 58.04 84.1206 56.3067 86.5206 52.84C88.974 49.3733 90.2006 44.2 90.2006 37.32C90.2006 30.4933 88.974 25.3733 86.5206 21.96C84.1206 18.4933 81.054 16.76 77.3206 16.76C73.5873 16.76 70.494 18.4933 68.0406 21.96C65.6406 25.3733 64.4406 30.4933 64.4406 37.32C64.4406 44.1467 65.6406 49.32 68.0406 52.84C70.494 56.3067 73.5873 58.04 77.3206 58.04Z" fill="#262626"/>
</svg>
