<svg width="100" height="30" viewBox="0 0 100 30" fill="none" xmlns="http://www.w3.org/2000/svg">
<path d="M15.2718 0.180664C7.05655 0.180664 0.396484 6.84054 0.396484 15.0558C0.396484 23.2713 7.05655 29.9307 15.2718 29.9307C23.4879 29.9307 30.1472 23.2713 30.1472 15.0558C30.1472 6.84108 23.4879 0.181375 15.2716 0.181375L15.2718 0.180664ZM22.0935 21.6348C21.827 22.0718 21.2551 22.2103 20.8181 21.9421C17.3255 19.8088 12.9288 19.3256 7.7509 20.5086C7.25194 20.6223 6.75458 20.3097 6.64089 19.8106C6.52668 19.3114 6.83806 18.814 7.33827 18.7004C13.0047 17.4058 17.8652 17.9632 21.7862 20.3594C22.2231 20.6276 22.3617 21.1978 22.0935 21.6348ZM23.9142 17.5845C23.5785 18.1302 22.8644 18.3025 22.3191 17.9668C18.3206 15.5091 12.2256 14.7973 7.49618 16.2329C6.88283 16.4182 6.23501 16.0725 6.04885 15.4602C5.86412 14.8469 6.20996 14.2003 6.82225 14.0138C12.2245 12.3746 18.9405 13.1686 23.5323 15.9903C24.0776 16.326 24.2499 17.0401 23.9142 17.5847V17.5845ZM24.0705 13.3668C19.2763 10.5193 11.3664 10.2574 6.78904 11.6467C6.054 11.8696 5.27669 11.4547 5.05395 10.7196C4.8312 9.98424 5.24579 9.20746 5.98135 8.984C11.2358 7.38889 19.9708 7.69708 25.4905 10.9738C26.153 11.3662 26.3697 12.2201 25.9772 12.8803C25.5864 13.5415 24.7302 13.7594 24.0712 13.3668H24.0705ZM40.8672 13.9125C38.2987 13.3001 37.8422 12.8702 37.8422 11.9669C37.8422 11.1136 38.645 10.5393 39.8405 10.5393C40.9986 10.5393 42.1461 10.9754 43.3505 11.8732C43.386 11.9003 43.4322 11.9112 43.4766 11.9041C43.5228 11.8973 43.5618 11.8726 43.5885 11.8355L44.8426 10.0677C44.8941 9.9949 44.8799 9.89454 44.8106 9.83894C43.3771 8.68914 41.7642 8.13014 39.8778 8.13014C37.105 8.13014 35.167 9.79435 35.167 12.1755C35.167 14.7289 36.8385 15.633 39.7268 16.331C42.1834 16.8971 42.5991 17.3713 42.5991 18.219C42.5991 19.1586 41.7607 19.7431 40.4107 19.7431C38.9115 19.7431 37.6876 19.2368 36.3199 18.0538C36.2861 18.0236 36.2399 18.0112 36.1973 18.0129C36.1511 18.0165 36.1103 18.0378 36.0818 18.0716L34.675 19.7448C34.6164 19.8159 34.6235 19.9189 34.691 19.9793C36.2826 21.4003 38.24 22.1499 40.3538 22.1499C43.3416 22.1499 45.2724 20.5175 45.2724 17.9898C45.2778 15.857 44.0006 14.6758 40.8725 13.9148L40.8672 13.9125ZM52.033 11.3795C50.7381 11.3795 49.6759 11.8897 48.7984 12.935V11.7584C48.7984 11.6655 48.7238 11.5898 48.6314 11.5898H46.3311C46.2387 11.5898 46.1641 11.6655 46.1641 11.7584V24.8322C46.1641 24.9245 46.2387 25.0009 46.3311 25.0009H48.6314C48.7238 25.0009 48.7984 24.9245 48.7984 24.8322V20.7058C49.6759 21.6881 50.7381 22.1695 52.033 22.1695C54.4399 22.1695 56.877 20.3168 56.877 16.775C56.8806 13.2326 54.4435 11.3793 52.0348 11.3793L52.033 11.3795ZM54.2019 16.775C54.2019 18.5778 53.0917 19.8372 51.5001 19.8372C49.9281 19.8372 48.7415 18.521 48.7415 16.775C48.7415 15.0289 49.9281 13.713 51.5001 13.713C53.0651 13.7129 54.2019 15.0003 54.2019 16.7749V16.775ZM63.1207 11.3795C60.0211 11.3795 57.5928 13.7662 57.5928 16.8136C57.5928 19.8283 60.0051 22.189 63.0834 22.189C66.1937 22.189 68.629 19.8106 68.629 16.775C68.629 13.7498 66.2097 11.3799 63.1207 11.3799V11.3795ZM63.1207 19.855C61.4723 19.855 60.2289 18.5298 60.2289 16.7741C60.2289 15.0105 61.4297 13.7306 63.0834 13.7306C64.7425 13.7306 65.993 15.0552 65.993 16.8127C65.993 18.576 64.7851 19.855 63.1207 19.855ZM75.2475 11.5898H72.7163V9.00248C72.7163 8.90976 72.6417 8.83409 72.5493 8.83409H70.249C70.1566 8.83409 70.0802 8.90976 70.0802 9.00248V11.5898H68.9754C68.883 11.5898 68.8084 11.6655 68.8084 11.7584V13.7349C68.8084 13.8276 68.883 13.9035 68.9754 13.9035H70.0802V19.0183C70.0802 21.0842 71.1087 22.1322 73.139 22.1322C73.9632 22.1322 74.6471 21.9616 75.2919 21.5957C75.3452 21.5673 75.3772 21.5105 75.3772 21.4501V19.5672C75.3772 19.5104 75.347 19.4553 75.2972 19.4251C75.2475 19.3931 75.1853 19.3913 75.1338 19.418C74.6915 19.64 74.2634 19.7431 73.7838 19.7431C73.0467 19.7431 72.7163 19.4073 72.7163 18.6577V13.9044H75.2475C75.3399 13.9044 75.4145 13.8287 75.4145 13.7358V11.7595C75.418 11.6666 75.3434 11.5909 75.2493 11.5909L75.2475 11.5898ZM84.0651 11.6V11.2822C84.0651 10.3473 84.4239 9.93042 85.2268 9.93042C85.7064 9.93042 86.0918 10.0256 86.5235 10.1695C86.5768 10.1862 86.6318 10.1779 86.6745 10.1461C86.7189 10.1143 86.7437 10.0633 86.7437 10.0093V8.07134C86.7437 7.99727 86.6975 7.93173 86.6247 7.90988C86.17 7.77434 85.5874 7.63526 84.7134 7.63526C82.5907 7.63526 81.4663 8.83142 81.4663 11.0932V11.5799H80.3615C80.2691 11.5799 80.1927 11.6556 80.1927 11.7483V13.7349C80.1927 13.8276 80.2691 13.9035 80.3615 13.9035H81.4663V21.7911C81.4663 21.8853 81.5427 21.9599 81.6351 21.9599H83.9336C84.0278 21.9599 84.1024 21.8853 84.1024 21.7911V13.904H86.2499L89.5396 21.7911C89.1666 22.6189 88.7989 22.7841 88.298 22.7841C87.893 22.7841 87.4649 22.6633 87.0297 22.4235C86.9889 22.4022 86.9391 22.3986 86.8965 22.4111C86.8521 22.427 86.8148 22.459 86.797 22.5016L86.0172 24.2122C85.9799 24.2939 86.0119 24.3881 86.09 24.4307C86.9036 24.8712 87.6372 25.0595 88.5449 25.0595C90.243 25.0595 91.1827 24.2673 92.0087 22.1393L95.9983 11.8302C96.0196 11.7783 96.0125 11.7197 95.9805 11.6737C95.9503 11.628 95.8988 11.6005 95.8437 11.6005H93.4493C93.3764 11.6005 93.3125 11.6461 93.2894 11.7135L90.8363 18.7181L88.1506 11.7088C88.1257 11.6437 88.0635 11.6005 87.9942 11.6005H84.0651V11.6ZM78.9529 11.5898H76.6526C76.5602 11.5898 76.4838 11.6655 76.4838 11.7584V21.7911C76.4838 21.8853 76.5602 21.9599 76.6526 21.9599H78.9529C79.0452 21.9599 79.1216 21.8853 79.1216 21.7911V11.7591C79.1216 11.6662 79.047 11.5905 78.9529 11.5905V11.5898ZM77.816 7.02137C76.9048 7.02137 76.1659 7.75889 76.1659 8.66996C76.1659 9.58155 76.9048 10.32 77.816 10.32C78.7273 10.32 79.4644 9.58155 79.4644 8.66996C79.4644 7.75907 78.7255 7.02137 77.816 7.02137ZM97.9628 14.8158C97.0534 14.8158 96.3446 14.0848 96.3446 13.1972C96.3446 12.3096 97.0623 11.5703 97.9717 11.5703C98.8812 11.5703 99.5899 12.3011 99.5899 13.188C99.5899 14.0756 98.8723 14.8158 97.9628 14.8158ZM97.9717 11.7312C97.1422 11.7312 96.5152 12.3902 96.5152 13.1972C96.5152 14.0038 97.1386 14.654 97.9628 14.654C98.7924 14.654 99.4194 13.9955 99.4194 13.188C99.4194 12.3814 98.7959 11.7312 97.9717 11.7312ZM98.3305 13.3544L98.7888 13.9953H98.4016L97.9895 13.4073H97.636V13.9953H97.3127V12.2964H98.0694C98.4655 12.2964 98.7249 12.4984 98.7249 12.8384C98.7267 13.1169 98.565 13.2871 98.3323 13.3544H98.3305ZM98.057 12.5879H97.636V13.1253H98.057C98.2666 13.1253 98.3927 13.0224 98.3927 12.8563C98.3927 12.6816 98.2666 12.5879 98.057 12.5879Z" fill="#4C4C4D"/>
</svg>
