<svg width="70" height="17" viewBox="0 0 70 17" fill="none" xmlns="http://www.w3.org/2000/svg">
<path fill-rule="evenodd" clip-rule="evenodd" d="M56.9652 5.59101C57.2302 6.04833 57.3169 6.56865 57.3456 7.1536L57.3832 7.93325V13.3851L57.4217 14.1656C57.4986 15.4402 58.4386 16.3827 59.723 16.4629L60.4994 16.5013V7.93325L60.5378 7.1536C60.5697 6.57519 60.6556 6.04506 60.9248 5.58446C61.1991 5.11203 61.5928 4.72007 62.0665 4.44793C62.5401 4.1758 63.077 4.03306 63.6233 4.03405C64.1696 4.03505 64.706 4.17974 65.1786 4.4536C65.6513 4.72746 66.0436 5.12085 66.3161 5.59428C66.5812 6.0516 66.6638 6.58174 66.6957 7.1536L66.7342 7.9308V13.3851L66.7726 14.1656C66.8528 15.4468 67.7855 16.3892 69.074 16.4629L69.8504 16.5013V7.1536C69.8504 5.50066 69.1939 3.9154 68.0253 2.74637C66.8568 1.57734 65.2718 0.920258 63.6188 0.919607C62.7341 0.918674 61.8594 1.10655 61.0532 1.47068C60.2469 1.83481 59.5276 2.36681 58.9433 3.03115C58.3588 2.36708 57.6395 1.8352 56.8333 1.47096C56.0271 1.10672 55.1525 0.918485 54.2679 0.918789C52.9736 0.918789 51.7726 1.31148 50.7778 1.98969C50.1708 1.3123 48.8127 0.918789 48.0331 0.918789V16.5013L48.8127 16.4629C50.1168 16.377 51.0592 15.4599 51.11 14.1656L51.1517 13.3851V7.93325L51.1901 7.1536C51.2229 6.56538 51.3047 6.04833 51.5705 5.58774C51.845 5.1156 52.2386 4.72373 52.7119 4.45126C53.1852 4.17879 53.7217 4.03525 54.2679 4.03497C54.8144 4.03508 55.3513 4.17891 55.8247 4.45202C56.2982 4.72513 56.6915 5.11793 56.9652 5.59101ZM3.62203 16.4637L4.40169 16.5013H16.0884L16.0499 15.7241C15.9444 14.4429 15.0371 13.507 13.7519 13.4236L12.9722 13.3851H5.96101L15.3087 4.03415L15.2703 3.25776C15.2097 1.96351 14.264 1.02842 12.9722 0.95724L12.1925 0.922061L0.505859 0.918789L0.54431 1.69845C0.646574 2.96733 1.56695 3.92288 2.84156 3.99651L3.62203 4.03497H10.6332L1.28552 13.3859L1.32397 14.1656C1.40087 15.45 2.32779 16.3802 3.62203 16.4629V16.4637ZM44.9741 3.19968C45.6978 3.92315 46.2718 4.78208 46.6634 5.72741C47.055 6.67275 47.2566 7.68598 47.2566 8.70923C47.2566 9.73248 47.055 10.7457 46.6634 11.691C46.2718 12.6364 45.6978 13.4953 44.9741 14.2188C43.5122 15.6796 41.5301 16.5001 39.4634 16.5001C37.3967 16.5001 35.4145 15.6796 33.9526 14.2188C30.91 11.1762 30.91 6.24222 33.9526 3.19968C34.6755 2.47645 35.5339 1.90271 36.4786 1.51121C37.4233 1.11971 38.4358 0.91813 39.4585 0.917971C40.4827 0.91726 41.4971 1.11849 42.4435 1.51014C43.39 1.9018 44.2499 2.4762 44.9741 3.20049V3.19968ZM42.7693 5.40612C43.6457 6.28314 44.138 7.47225 44.138 8.71209C44.138 9.95193 43.6457 11.141 42.7693 12.0181C41.8923 12.8944 40.7032 13.3867 39.4634 13.3867C38.2235 13.3867 37.0344 12.8944 36.1574 12.0181C35.281 11.141 34.7887 9.95193 34.7887 8.71209C34.7887 7.47225 35.281 6.28314 36.1574 5.40612C37.0344 4.52975 38.2235 4.03747 39.4634 4.03747C40.7032 4.03747 41.8923 4.52975 42.7693 5.40612ZM23.1061 0.917971C24.1288 0.918238 25.1414 1.11995 26.0861 1.51159C27.0308 1.90323 27.8891 2.47712 28.612 3.20049C31.6553 6.24222 31.6553 11.1771 28.612 14.2188C27.15 15.6796 25.1679 16.5001 23.1012 16.5001C21.0345 16.5001 19.0524 15.6796 17.5904 14.2188C14.5479 11.1762 14.5479 6.24222 17.5904 3.19968C18.3134 2.47645 19.1717 1.90271 20.1164 1.51121C21.0611 1.11971 22.0737 0.91813 23.0963 0.917971H23.1061ZM26.4072 5.40448C27.2838 6.28154 27.7762 7.47083 27.7762 8.71087C27.7762 9.9509 27.2838 11.1402 26.4072 12.0173C25.5301 12.8936 24.341 13.3859 23.1012 13.3859C21.8614 13.3859 20.6722 12.8936 19.7952 12.0173C18.9189 11.1402 18.4266 9.95111 18.4266 8.71127C18.4266 7.47144 18.9189 6.28233 19.7952 5.4053C20.6722 4.52893 21.8614 4.03665 23.1012 4.03665C24.341 4.03665 25.5301 4.52893 26.4072 5.4053V5.40448Z" fill="#4C4C4D"/>
</svg>
